<svg width="24" height="25" viewBox="0 0 24 25" fill="none" xmlns="http://www.w3.org/2000/svg">
<g clip-path="url(#clip0_262_1493)">
<path fill-rule="evenodd" clip-rule="evenodd" d="M23.75 23.3546L22.35 17.8546C23.25 16.2046 23.75 14.3046 23.75 12.3046C23.75 5.80457 18.5 0.554565 12 0.554565C5.5 0.554565 0.25 5.80457 0.25 12.3046C0.25 18.8046 5.5 24.0546 12 24.0546C14 24.0546 15.9 23.5546 17.55 22.6546L23.05 24.0546C23.45 24.1546 23.85 23.7546 23.75 23.3546ZM22.25 12.3046C22.25 14.3046 21.75 15.8046 20.95 17.3046C20.85 17.5046 20.8 17.7546 20.85 18.0046L21.9 22.2046L17.75 21.1546C17.5 21.1046 17.25 21.1046 17.05 21.2546C16.15 21.7546 14.45 22.5546 12.05 22.5546C6.35 22.5546 1.75 17.9546 1.75 12.3046C1.75 6.65457 6.35 2.05457 12 2.05457C17.65 2.05457 22.25 6.65457 22.25 12.3046Z" fill="#020402"/>
</g>
<defs>
<clipPath id="clip0_262_1493">
<rect width="24" height="24" fill="white" transform="translate(0 0.304565)"/>
</clipPath>
</defs>
</svg>
