<svg width="24" height="25" viewBox="0 0 24 25" fill="none" xmlns="http://www.w3.org/2000/svg">
<g clip-path="url(#clip0_262_1514)">
<path d="M12 24.3046C5.4 24.3046 0 18.9046 0 12.3046C0 5.70457 5.4 0.304565 12 0.304565C18.6 0.304565 24 5.70457 24 12.3046C24 18.9046 18.6 24.3046 12 24.3046ZM12 1.80457C6.2 1.80457 1.5 6.50457 1.5 12.3046C1.5 18.1046 6.2 22.8046 12 22.8046C17.8 22.8046 22.5 18.1046 22.5 12.3046C22.5 6.50457 17.8 1.80457 12 1.80457Z" fill="#020402"/>
<path d="M17.4498 12.3046C17.4498 11.6046 16.8998 11.0546 16.1998 11.0546C15.4998 11.0546 14.9498 11.6046 14.9498 12.3046C14.9498 13.0046 15.4998 13.5546 16.1998 13.5546C16.8998 13.5546 17.4498 13.0046 17.4498 12.3046ZM6.5498 12.3046C6.5498 11.6046 7.0998 11.0546 7.7998 11.0546C8.4998 11.0546 9.0498 11.6046 9.0498 12.3046C9.0498 13.0046 8.4998 13.5546 7.7998 13.5546C7.0998 13.5546 6.5498 13.0046 6.5498 12.3046ZM11.9998 18.9546C9.3998 18.9546 7.9998 17.2046 7.8998 17.1046C7.6498 16.8046 7.6998 16.3046 7.9998 16.0546C8.2998 15.8046 8.7998 15.8546 9.0498 16.1546C9.0998 16.2046 10.0998 17.4046 11.9498 17.4046C13.7998 17.4046 14.8498 16.1546 14.8498 16.1546C15.0998 15.8546 15.5998 15.8046 15.8998 16.0546C16.1998 16.3046 16.2498 16.8046 15.9998 17.1046C15.9998 17.2046 14.5998 18.9546 11.9998 18.9546Z" fill="#020402"/>
</g>
<defs>
<clipPath id="clip0_262_1514">
<rect width="24" height="24" fill="white" transform="translate(0 0.304565)"/>
</clipPath>
</defs>
</svg>
