<svg width="24" height="25" viewBox="0 0 24 25" fill="none" xmlns="http://www.w3.org/2000/svg">
<path d="M17.3 3.35455C20.15 3.35455 22.5 5.95455 22.5 9.10455C22.5 12.5046 19.55 14.6046 16.75 17.1046C13.95 19.6046 12.5 20.9546 12 21.2546C11.45 20.9046 9.65 19.2546 7.25 17.1046C4.4 14.6046 1.5 12.5046 1.5 9.10455C1.5 5.95455 3.85 3.35455 6.7 3.35455C8.8 3.35455 9.95 4.35455 10.75 5.50455C11.7 6.80455 11.85 7.45455 12 7.45455C12.15 7.45455 12.3 6.80455 13.25 5.50455C14.05 4.35455 15.2 3.35455 17.3 3.35455ZM17.3 1.85455C15.05 1.85455 13.35 2.75455 12 4.65455C10.65 2.80455 8.95 1.90455 6.7 1.90455C3 1.85455 0 5.10455 0 9.10455C0 12.7546 2.7 15.1046 5.3 17.3546C5.6 17.6046 5.95 17.9046 6.25 18.2046L7.4 19.2046C9.6 21.1546 10.7 22.1546 11.2 22.4546C11.45 22.6046 11.75 22.7046 12 22.7046C12.3 22.7046 12.55 22.6046 12.8 22.4546C13.3 22.1546 14.2 21.3546 16.7 19.0546L17.7 18.1546C18.05 17.8546 18.35 17.5546 18.7 17.3046C21.35 15.1046 24 12.8046 24 9.10455C24 5.10455 21 1.85455 17.3 1.85455Z" fill="#020402"/>
</svg>
