<svg width="24" height="25" viewBox="0 0 24 25" fill="none" xmlns="http://www.w3.org/2000/svg">
<g clip-path="url(#clip0_262_1500)">
<path d="M21.75 24.3046C21.55 24.3046 21.35 24.2046 21.2 24.1046L12 14.8046L2.8 24.1046C2.6 24.3046 2.25 24.4046 2 24.2546C1.7 24.1546 1.5 23.8546 1.5 23.5546V1.05457C1.5 0.654565 1.85 0.304565 2.25 0.304565H21.75C22.15 0.304565 22.5 0.654565 22.5 1.05457V23.5546C22.5 23.8546 22.3 24.1546 22.05 24.2546C21.95 24.3046 21.85 24.3046 21.75 24.3046ZM12 13.3046C12.4 13.3046 12.8 13.4546 13.1 13.7546L21 21.7546V1.80457H3V21.7546L10.9 13.7546C11.2 13.4546 11.6 13.3046 12 13.3046Z" fill="#020402"/>
</g>
<defs>
<clipPath id="clip0_262_1500">
<rect width="24" height="24" fill="white" transform="translate(0 0.304565)"/>
</clipPath>
</defs>
</svg>
