<svg width="24" height="25" viewBox="0 0 24 25" fill="none" xmlns="http://www.w3.org/2000/svg">
<g clip-path="url(#clip0_262_1496)">
<path d="M23.9 2.20457C23.75 1.95457 23.5 1.80457 23.25 1.80457H0.75C0.45 1.85457 0.15 2.05457 0.05 2.30457C-0.05 2.55457 0 2.90457 0.2 3.15457L8.15 10.9546L10.9 22.2546C10.95 22.5546 11.2 22.7546 11.5 22.8046H11.6C11.85 22.8046 12.1 22.6546 12.25 22.4546L23.85 2.95457C24.05 2.75457 24.05 2.45457 23.9 2.20457ZM2.6 3.35457H20.35L9 9.65457L2.6 3.35457ZM11.95 20.1546L9.75 10.9546L21.2 4.60457L11.95 20.1546Z" fill="#020402"/>
</g>
<defs>
<clipPath id="clip0_262_1496">
<rect width="24" height="24" fill="white" transform="translate(0 0.304565)"/>
</clipPath>
</defs>
</svg>
