<svg width="128" height="128" viewBox="0 0 128 128" fill="none" xmlns="http://www.w3.org/2000/svg">
<rect width="128" height="128" rx="64" fill="#D9D9D9"/>
<g clip-path="url(#clip0_228_101)">
<path d="M75.1211 70C71.5408 70 69.8193 72 63.9437 72C58.068 72 56.359 70 52.7662 70C43.5099 70 36 77.525 36 86.8V90C36 93.3125 38.6821 96 41.9879 96H85.8994C89.2052 96 91.8873 93.3125 91.8873 90V86.8C91.8873 77.525 84.3775 70 75.1211 70ZM85.8994 90H41.9879V86.8C41.9879 80.85 46.8282 76 52.7662 76C54.5875 76 57.5441 78 63.9437 78C70.3932 78 73.2873 76 75.1211 76C81.0592 76 85.8994 80.85 85.8994 86.8V90ZM63.9437 68C73.8612 68 81.9074 59.9375 81.9074 50C81.9074 40.0625 73.8612 32 63.9437 32C54.0262 32 45.9799 40.0625 45.9799 50C45.9799 59.9375 54.0262 68 63.9437 68ZM63.9437 38C70.5429 38 75.9195 43.3875 75.9195 50C75.9195 56.6125 70.5429 62 63.9437 62C57.3445 62 51.9678 56.6125 51.9678 50C51.9678 43.3875 57.3445 38 63.9437 38Z" fill="#020402"/>
</g>
<defs>
<clipPath id="clip0_228_101">
<rect width="55.8873" height="64" fill="white" transform="translate(36 32)"/>
</clipPath>
</defs>
</svg>
