<svg width="32" height="32" viewBox="0 0 32 32" fill="none" xmlns="http://www.w3.org/2000/svg">
<path d="M31.4022 28.3908L23.2625 20.2511C25.1265 17.6319 25.9383 14.4079 25.5369 11.2183C25.1356 8.02873 23.5505 5.10636 21.0957 3.03056C18.641 0.954754 15.4959 -0.122923 12.2839 0.0111646C9.07199 0.145253 6.02767 1.48132 3.75449 3.75449C1.48132 6.02767 0.145253 9.07199 0.0111646 12.2839C-0.122923 15.4959 0.954754 18.641 3.03056 21.0957C5.10636 23.5505 8.02873 25.1356 11.2183 25.5369C14.4079 25.9383 17.6319 25.1265 20.2511 23.2625L28.3908 31.4022C28.7925 31.7901 29.3304 32.0048 29.8888 31.9999C30.4472 31.9951 30.9814 31.7711 31.3762 31.3762C31.7711 30.9814 31.9951 30.4472 31.9999 29.8888C32.0048 29.3304 31.7901 28.7925 31.4022 28.3908ZM2.21051 12.859C2.21051 10.7529 2.83503 8.69412 4.00509 6.943C5.17516 5.19187 6.83822 3.82703 8.78397 3.02107C10.7297 2.21512 12.8708 2.00424 14.9364 2.41511C17.002 2.82599 18.8993 3.84015 20.3886 5.32937C21.8778 6.81858 22.8919 8.71595 23.3028 10.7815C23.7137 12.8471 23.5028 14.9882 22.6968 16.9339C21.8909 18.8797 20.5261 20.5428 18.7749 21.7128C17.0238 22.8829 14.965 23.5074 12.859 23.5074C10.0358 23.5043 7.32909 22.3814 5.33279 20.3851C3.33649 18.3888 2.21361 15.6822 2.21051 12.859Z" fill="#020402"/>
</svg>
