<svg width="32" height="32" viewBox="0 0 32 32" fill="none" xmlns="http://www.w3.org/2000/svg">
<g clip-path="url(#clip0_248_2466)">
<path d="M21.2 32H10.8C6.4 32 4.4 30.9333 2.73333 29.3333C1.06667 27.6 0 25.6 0 21.2V10.8C0 6.4 1.06667 4.4 2.66667 2.73333C4.4 1.06667 6.4 0 10.8 0H21.2C25.6 0 27.6 1.06667 29.2667 2.66667C30.9333 4.4 32 6.4 32 10.8V21.2C32 25.6 30.9333 27.6 29.3333 29.2667C27.6 30.9333 25.6 32 21.2 32ZM10.8 2C6.66667 2 5.2 3.06667 4.06667 4.13333C3.06667 5.2 2 6.66667 2 10.8V21.2C2 25.3333 3.06667 26.8 4.13333 27.9333C5.2 29 6.66667 30 10.8 30H21.2C25.3333 30 26.8 28.9333 27.9333 27.8667C29 26.8 30 25.3333 30 21.2V10.8C30 6.66667 28.9333 5.2 27.8667 4.06667C26.8 3.06667 25.3333 2 21.2 2H10.8Z" fill="#262626"/>
<path d="M24.1998 17H7.7998C7.26647 17 6.7998 16.5333 6.7998 16C6.7998 15.4667 7.26647 15 7.7998 15H24.1998C24.7331 15 25.1998 15.4667 25.1998 16C25.1998 16.5333 24.7331 17 24.1998 17Z" fill="#262626"/>
<path d="M16 25.2C15.4667 25.2 15 24.7333 15 24.2V7.79999C15 7.26665 15.4667 6.79999 16 6.79999C16.5333 6.79999 17 7.26665 17 7.79999V24.2C17 24.7333 16.5333 25.2 16 25.2Z" fill="#262626"/>
</g>
<defs>
<clipPath id="clip0_248_2466">
<rect width="32" height="32" fill="white"/>
</clipPath>
</defs>
</svg>
