<svg width="32" height="32" viewBox="0 0 32 32" fill="none" xmlns="http://www.w3.org/2000/svg">
<g clip-path="url(#clip0_248_2463)">
<path d="M24.1332 11.1333L19.3332 14.8C18.9998 15.0667 18.5332 15.0667 18.1998 14.8L14.5998 12.1333C13.5332 11.3333 11.9998 11.6 11.2665 12.7333L6.73317 19.8667C6.26651 20.5333 7.13317 21.3333 7.79984 20.8667L12.6665 17.2C12.9998 16.9333 13.4665 16.9333 13.7998 17.2L17.3998 19.8667C18.4665 20.6667 19.9998 20.4 20.7332 19.2667L25.2665 12.1333C25.6665 11.4 24.7998 10.6667 24.1332 11.1333V11.1333ZM15.9998 0.666672C7.33317 0.666672 0.666504 7.00001 0.666504 15.5333C0.666504 20 2.4665 23.8667 5.4665 26.5333C5.73317 26.7333 5.86651 27.0667 5.86651 27.4L5.99984 30.1333C5.99984 30.8 6.59984 31.3333 7.19984 31.3333C7.33317 31.3333 7.53317 31.3333 7.66651 31.2L10.7332 29.8667C10.8665 29.8 11.0665 29.7333 11.1998 29.7333C11.3332 29.7333 11.3998 29.7333 11.5332 29.8C12.9332 30.2 14.3998 30.4 15.9998 30.4C24.6665 30.4 31.3332 24.0667 31.3332 15.5333C31.3332 7.00001 24.6665 0.666672 15.9998 0.666672ZM15.9998 28.4C14.6665 28.4 13.3332 28.2 12.0665 27.8667C11.7998 27.8 11.5332 27.7333 11.1998 27.7333C10.7332 27.7333 10.3332 27.8 9.86651 28L7.86651 28.8667V27.3333C7.86651 26.4667 7.46651 25.6667 6.79984 25.0667C4.13317 22.6667 2.6665 19.2667 2.6665 15.5333C2.6665 8.20001 8.39984 2.66667 15.9998 2.66667C23.5998 2.66667 29.3332 8.20001 29.3332 15.5333C29.3332 22.8667 23.5998 28.4 15.9998 28.4Z" fill="#262626"/>
</g>
<defs>
<clipPath id="clip0_248_2463">
<rect width="32" height="32" fill="white"/>
</clipPath>
</defs>
</svg>
