<svg width="32" height="32" viewBox="0 0 32 32" fill="none" xmlns="http://www.w3.org/2000/svg">
<g clip-path="url(#clip0_248_2460)">
<path d="M30.3332 32H20.0665C19.5332 32 19.0665 31.5333 19.0665 31V22.8C19.0665 21.0667 17.6665 19.7333 15.9998 19.7333C14.3332 19.7333 12.9332 21.1333 12.9332 22.8V31C12.9332 31.5333 12.4665 32 11.9332 32H1.6665C1.13317 32 0.666504 31.5333 0.666504 31V15.3333C0.666504 15.0667 0.799837 14.8 0.933171 14.6L15.2665 0.266667C15.6665 -0.133333 16.3332 -0.133333 16.6665 0.266667L30.9998 14.6C31.1998 14.8 31.2665 15.0667 31.2665 15.3333V31C31.3332 31.5333 30.8665 32 30.3332 32Z" fill="#262626"/>
</g>
<defs>
<clipPath id="clip0_248_2460">
<rect width="32" height="32" fill="white"/>
</clipPath>
</defs>
</svg>
