<svg width="32" height="32" viewBox="0 0 32 32" fill="none" xmlns="http://www.w3.org/2000/svg">
<g clip-path="url(#clip0_248_2474)">
<path d="M23.0667 4.06668C26.8667 4.06668 30 7.53335 30 11.7333C30 16.2667 26.0667 19.0667 22.3333 22.4C18.6 25.7333 16.6667 27.5334 16 27.9334C15.2667 27.4667 12.8667 25.2667 9.66667 22.4C5.86667 19.0667 2 16.2667 2 11.7333C2 7.53335 5.13333 4.06668 8.93333 4.06668C11.7333 4.06668 13.2667 5.40001 14.3333 6.93335C15.6 8.66668 15.8 9.53335 16 9.53335C16.2 9.53335 16.4 8.66668 17.6667 6.93335C18.7333 5.40001 20.2667 4.06668 23.0667 4.06668V4.06668ZM23.0667 2.06668C20.0667 2.06668 17.8 3.26668 16 5.80001C14.2 3.33335 11.9333 2.13335 8.93333 2.13335C4 2.06668 0 6.40001 0 11.7333C0 16.6 3.6 19.7333 7.06667 22.7333C7.46667 23.0667 7.93333 23.4667 8.33333 23.8667L9.86667 25.2C12.8 27.8 14.2667 29.1333 14.9333 29.5333C15.2667 29.7333 15.6667 29.8667 16 29.8667C16.4 29.8667 16.7333 29.7333 17.0667 29.5333C17.7333 29.1333 18.9333 28.0667 22.2667 25L23.6 23.8C24.0667 23.4 24.4667 23 24.9333 22.6667C28.4667 19.7333 32 16.6667 32 11.7333C32 6.40001 28 2.06668 23.0667 2.06668V2.06668Z" fill="#262626"/>
</g>
<defs>
<clipPath id="clip0_248_2474">
<rect width="32" height="32" fill="white"/>
</clipPath>
</defs>
</svg>
