<svg width="32" height="32" viewBox="0 0 32 32" fill="none" xmlns="http://www.w3.org/2000/svg">
<g clip-path="url(#clip0_248_2471)">
<path fill-rule="evenodd" clip-rule="evenodd" d="M16 0C7.2 0 0 7.2 0 16C0 24.8 7.2 32 16 32C24.8 32 32 24.8 32 16C32 7.2 24.8 0 16 0ZM16 30C8.26667 30 2 23.7333 2 16C2 8.26667 8.26667 2 16 2C23.7333 2 30 8.26667 30 16C30 23.7333 23.7333 30 16 30ZM22.8 7.86667L12.9333 12.5333C12.7333 12.6 12.5333 12.8 12.4667 13L7.8 22.8667C7.6 23.2667 7.66667 23.7333 8 24C8.2 24.2 8.46667 24.2667 8.73333 24.2667C8.86667 24.2667 9 24.2667 9.13333 24.2L19 19.5333C19.2 19.4667 19.4 19.2667 19.4667 19.0667L24.1333 9.2C24.3333 8.8 24.2667 8.33333 23.9333 8.06667C23.6667 7.73333 23.2 7.66667 22.8 7.86667ZM17.8667 17.8667L14.2 14.2L21.2 10.8667L17.8667 17.8667Z" fill="#262626"/>
</g>
<defs>
<clipPath id="clip0_248_2471">
<rect width="32" height="32" fill="white"/>
</clipPath>
</defs>
</svg>
