<svg width="24" height="25" viewBox="0 0 24 25" fill="none" xmlns="http://www.w3.org/2000/svg">
<path d="M12 13.8046C12.8284 13.8046 13.5 13.133 13.5 12.3046C13.5 11.4762 12.8284 10.8046 12 10.8046C11.1716 10.8046 10.5 11.4762 10.5 12.3046C10.5 13.133 11.1716 13.8046 12 13.8046Z" fill="#020402"/>
<path d="M6.5 13.8046C7.32843 13.8046 8 13.133 8 12.3046C8 11.4762 7.32843 10.8046 6.5 10.8046C5.67157 10.8046 5 11.4762 5 12.3046C5 13.133 5.67157 13.8046 6.5 13.8046Z" fill="#020402"/>
<path d="M17.5 13.8046C18.3284 13.8046 19 13.133 19 12.3046C19 11.4762 18.3284 10.8046 17.5 10.8046C16.6716 10.8046 16 11.4762 16 12.3046C16 13.133 16.6716 13.8046 17.5 13.8046Z" fill="#020402"/>
</svg>
