<svg width="24" height="24" viewBox="0 0 24 24" fill="none" xmlns="http://www.w3.org/2000/svg">
<g clip-path="url(#clip0_262_1880)">
<path d="M18.3821 24.0655H4.63663C4.02595 24.072 3.4201 23.9566 2.85463 23.7259C2.28915 23.4953 1.77542 23.154 1.34358 22.7221C0.91174 22.2903 0.570475 21.7766 0.339803 21.2111C0.10913 20.6456 -0.00630541 20.0398 0.000265553 19.4291V5.68364C-0.00630541 5.07296 0.10913 4.46711 0.339803 3.90164C0.570475 3.33616 0.91174 2.82244 1.34358 2.39059C1.77542 1.95875 2.28915 1.61749 2.85463 1.38681C3.4201 1.15614 4.02595 1.04071 4.63663 1.04728H12.5457C12.7627 1.04728 12.9708 1.13348 13.1243 1.28692C13.2777 1.44036 13.3639 1.64846 13.3639 1.86546C13.3639 2.08246 13.2777 2.29056 13.1243 2.444C12.9708 2.59744 12.7627 2.68364 12.5457 2.68364H4.63663C4.24165 2.68 3.84991 2.75511 3.48429 2.90459C3.11866 3.05406 2.7865 3.2749 2.50719 3.55421C2.22789 3.83351 2.00705 4.16568 1.85758 4.5313C1.7081 4.89692 1.63299 5.28866 1.63663 5.68364V19.4291C1.63299 19.8241 1.7081 20.2158 1.85758 20.5814C2.00705 20.9471 2.22789 21.2792 2.50719 21.5585C2.7865 21.8378 3.11866 22.0587 3.48429 22.2082C3.84991 22.3576 4.24165 22.4327 4.63663 22.4291H18.3821C18.7771 22.4327 19.1688 22.3576 19.5344 22.2082C19.9001 22.0587 20.2322 21.8378 20.5115 21.5585C20.7908 21.2792 21.0117 20.9471 21.1611 20.5814C21.3106 20.2158 21.3857 19.8241 21.3821 19.4291V11.52C21.3821 11.303 21.4683 11.0949 21.6217 10.9415C21.7752 10.788 21.9833 10.7018 22.2003 10.7018C22.4173 10.7018 22.6254 10.788 22.7788 10.9415C22.9323 11.0949 23.0185 11.303 23.0185 11.52V19.4291C23.025 20.0398 22.9096 20.6456 22.6789 21.2111C22.4482 21.7766 22.107 22.2903 21.6751 22.7221C21.2433 23.154 20.7296 23.4953 20.1641 23.7259C19.5986 23.9566 18.9928 24.072 18.3821 24.0655Z" fill="#262626"/>
<path d="M9.54499 18.9924H5.89045C5.67345 18.9924 5.46534 18.9062 5.31191 18.7527C5.15847 18.5993 5.07227 18.3912 5.07227 18.1742V14.5196C5.07246 14.3027 5.15878 14.0947 5.31227 13.9415L18.5995 0.686912C19.053 0.243807 19.6619 -0.00427246 20.2959 -0.00427246C20.9299 -0.00427246 21.5388 0.243807 21.9923 0.686912L23.3559 2.05055C23.799 2.50403 24.0471 3.11289 24.0471 3.74691C24.0471 4.38094 23.799 4.98979 23.3559 5.44327L10.1014 18.7524C9.95345 18.9006 9.75433 18.9865 9.54499 18.9924ZM6.70863 17.356H9.20681L22.2214 4.26509C22.3614 4.11803 22.4395 3.92273 22.4395 3.71964C22.4395 3.51655 22.3614 3.32125 22.2214 3.17418L20.8577 1.81055C20.7107 1.67049 20.5154 1.59237 20.3123 1.59237C20.1092 1.59237 19.9139 1.67049 19.7668 1.81055L6.6759 14.8251L6.70863 17.356Z" fill="#262626"/>
<path d="M20.8363 7.64728C20.7252 7.64979 20.6148 7.62982 20.5117 7.58858C20.4086 7.54733 20.3149 7.48566 20.2363 7.40728L16.6581 3.82909C16.5135 3.67399 16.4349 3.46885 16.4386 3.25689C16.4423 3.04492 16.5282 2.84269 16.6781 2.69278C16.828 2.54288 17.0303 2.45701 17.2422 2.45327C17.4542 2.44953 17.6593 2.52821 17.8144 2.67273L21.4144 6.27273C21.491 6.34832 21.5517 6.43836 21.5932 6.53761C21.6346 6.63686 21.656 6.74335 21.656 6.85091C21.656 6.95848 21.6346 7.06497 21.5932 7.16422C21.5517 7.26347 21.491 7.3535 21.4144 7.42909C21.2573 7.57411 21.05 7.65235 20.8363 7.64728Z" fill="#262626"/>
</g>
<defs>
<clipPath id="clip0_262_1880">
<rect width="24" height="24" fill="white"/>
</clipPath>
</defs>
</svg>
